<?xml version="1.0" encoding="UTF-8"?>
<svg version="1.1" xmlns="http://www.w3.org/2000/svg" width="1518" height="429">
<path d="M0 0 C0.95064835 -0.0049649 1.90129669 -0.00992981 2.88075256 -0.01504517 C6.02142065 -0.02962637 9.162038 -0.03646688 12.30273438 -0.04199219 C13.38406143 -0.04481956 14.46538849 -0.04764694 15.57948303 -0.05056 C21.31715132 -0.06554679 27.05479455 -0.07477577 32.79248047 -0.07910156 C38.65981477 -0.0845437 44.52691199 -0.10848213 50.39417267 -0.13707352 C54.95359916 -0.15591263 59.51297139 -0.16091695 64.07243347 -0.16243744 C66.2313108 -0.16542369 68.39018813 -0.17331179 70.54902649 -0.18662262 C118.12582921 -0.45870283 159.15264597 13.7372173 193.39648438 47.16113281 C222.9839391 77.08590379 239.25833062 120.44532343 240.39648438 162.16113281 C240.43644531 163.381875 240.47640625 164.60261719 240.51757812 165.86035156 C241.26729537 210.18187088 226.02390953 254.06221678 195.15820312 286.33691406 C193.79115234 287.73490234 193.79115234 287.73490234 192.39648438 289.16113281 C191.4643734 290.15357036 190.53339855 291.1470761 189.60351562 292.14160156 C177.67225691 304.71130869 163.77428199 314.28028838 148.39648438 322.16113281 C147.72004883 322.51159668 147.04361328 322.86206055 146.34667969 323.22314453 C119.76982521 336.83797622 91.87391079 341.25455699 62.28712463 341.36036301 C59.25251017 341.37226733 56.21803078 341.391741 53.18347168 341.41348267 C44.56409139 341.47476646 35.9447338 341.52933684 27.32519531 341.5625 C22.03450551 341.58339407 16.74407754 341.61863141 11.45353699 341.6632576 C9.44088304 341.67743404 7.42818295 341.68614373 5.41548157 341.68931198 C2.61264324 341.69419814 -0.1894913 341.71728858 -2.9921875 341.74462891 C-3.82438812 341.74162277 -4.65658875 341.73861664 -5.51400757 341.73551941 C-9.71291693 341.67170763 -9.71291693 341.67170763 -13.29750919 343.55339909 C-14.96080242 345.60096375 -15.25816547 347.15623036 -15.70678711 349.74926758 C-15.87383652 350.67776016 -16.04088593 351.60625275 -16.21299744 352.56288147 C-16.38182938 353.56596848 -16.55066132 354.56905548 -16.72460938 355.60253906 C-16.91064224 356.63998764 -17.09667511 357.67743622 -17.28834534 358.74632263 C-17.88384728 362.07020922 -18.46408399 365.39647603 -19.04101562 368.72363281 C-19.79815527 373.08140629 -20.56991647 377.43625154 -21.34960938 381.79003906 C-21.51641708 382.77895645 -21.68322479 383.76787384 -21.85508728 384.78675842 C-24.40778551 399.04330728 -30.54817674 410.69494911 -42.60351562 419.16113281 C-53.4554998 425.22216694 -63.49693818 426.46115822 -75.77075195 426.41992188 C-77.70892288 426.42517883 -77.70892288 426.42517883 -79.68624878 426.43054199 C-83.20450603 426.43959949 -86.72264498 426.43615061 -90.24090409 426.42978382 C-93.93190198 426.42469461 -97.62289023 426.42942285 -101.31388855 426.43255615 C-107.50476895 426.43618504 -113.69560148 426.43142268 -119.88647461 426.421875 C-127.04105059 426.41096844 -134.19551276 426.41453627 -141.35008603 426.42552781 C-147.50400447 426.43460278 -153.65788866 426.43588566 -159.81181163 426.43065047 C-163.48276842 426.42753502 -167.15367168 426.42711026 -170.82462502 426.43372345 C-174.91090274 426.44057229 -178.99698376 426.43108085 -183.08325195 426.41992188 C-184.29837967 426.42397034 -185.51350739 426.4280188 -186.76545715 426.43218994 C-187.87703186 426.42655029 -188.98860657 426.42091064 -190.13386536 426.4151001 C-191.09927655 426.41434605 -192.06468775 426.413592 -193.05935383 426.41281509 C-195.76350584 426.14530571 -197.34075575 425.64789239 -199.60351562 424.16113281 C-203.50971688 418.30183093 -201.37644569 410.7090725 -200.18780518 404.10415649 C-200.03545245 403.226413 -199.88309972 402.3486695 -199.72613025 401.44432771 C-199.216819 398.52013869 -198.69779434 395.59776184 -198.17871094 392.67529297 C-197.8102658 390.57223576 -197.44239104 388.46907855 -197.07504272 386.36582947 C-196.07724953 380.66422993 -195.07068581 374.96421222 -194.06193638 369.2645421 C-193.21961393 364.50117619 -192.38132343 359.73710418 -191.54294467 354.97304285 C-189.56432156 343.73056806 -187.57832463 332.48941265 -185.58789062 321.24902344 C-183.53679647 309.66524904 -181.49872064 298.07923713 -179.46696019 286.49205744 C-177.72015619 276.53290104 -175.9649559 266.5752489 -174.2031219 256.61874044 C-173.15182205 250.67701701 -172.10375132 244.73477007 -171.06388092 238.7910347 C-170.08530735 233.19967426 -169.09624058 227.61026914 -168.0992012 222.02217293 C-167.73588907 219.97586108 -167.37623773 217.92889524 -167.02060318 215.88123512 C-164.24763932 199.9350944 -161.86664748 186.47112644 -148.04101562 176.27050781 C-139.01152067 170.59954452 -131.34097177 169.83801635 -120.84570312 169.79003906 C-119.01387985 169.77649635 -119.01387985 169.77649635 -117.14505005 169.76268005 C-114.571497 169.74821195 -111.99790746 169.73929941 -109.42431641 169.7355957 C-105.48472803 169.72365165 -101.54668236 169.67438819 -97.60742188 169.62402344 C-95.10352325 169.61456407 -92.59961504 169.60732672 -90.09570312 169.60253906 C-88.32995438 169.57324059 -88.32995438 169.57324059 -86.52853394 169.54335022 C-78.52814345 169.58762687 -78.52814345 169.58762687 -74.32275391 172.19604492 C-70.06260232 179.54332424 -73.56795986 189.64762141 -75.00610352 197.54418945 C-75.26450245 198.9920105 -75.52226213 200.43994576 -75.7794342 201.88798523 C-76.33218163 204.99336147 -76.88908062 208.09795357 -77.44917488 211.20201302 C-78.33505603 216.11364435 -79.20952891 221.02726476 -80.08213806 225.94126892 C-82.40771675 239.02727263 -84.74838742 252.1105686 -87.09558719 265.19271034 C-88.63936319 273.79738576 -90.17689984 282.40312426 -91.70274729 291.01099867 C-92.56866637 295.89299292 -93.44449815 300.77307021 -94.32785618 305.6519376 C-94.87551926 308.68952218 -95.41409882 311.72866567 -95.95018578 314.76831245 C-96.19995098 316.17382681 -96.45343073 317.57868709 -96.71096039 318.98279953 C-97.06294533 320.90489373 -97.40015996 322.82967502 -97.73670959 324.75453186 C-97.92936433 325.82909165 -98.12201906 326.90365145 -98.32051182 328.01077366 C-98.63927603 331.55921266 -98.22877737 334.66394849 -97.60351562 338.16113281 C-93.87349033 339.33696707 -90.31270174 339.30851223 -86.41992188 339.33813477 C-85.70399872 339.34470596 -84.98807556 339.35127716 -84.25045776 339.35804749 C-81.8889759 339.3777078 -79.52755724 339.38942344 -77.16601562 339.39941406 C-76.35826691 339.40348959 -75.55051819 339.40756512 -74.71829224 339.41176414 C-70.4472886 339.43258847 -66.1763168 339.44690891 -61.90527344 339.45629883 C-57.49328887 339.46738831 -53.08180517 339.50182725 -48.66999817 339.54147053 C-45.27623547 339.56758975 -41.88259339 339.57598618 -38.48873901 339.57958031 C-36.86201575 339.58445422 -35.23529815 339.59609114 -33.6086731 339.6146183 C-31.33441037 339.63892328 -29.06146174 339.638062 -26.78710938 339.63110352 C-25.49345459 339.63696976 -24.1997998 339.642836 -22.86694336 339.64888 C-19.56954118 339.41013809 -19.56954118 339.41013809 -17.2353363 337.46003723 C-15.3839019 334.85174161 -14.83599499 333.05358274 -14.31079102 329.90869141 C-14.03514061 328.33587906 -14.03514061 328.33587906 -13.75392151 326.73129272 C-13.57151413 325.60212433 -13.38910675 324.47295593 -13.20117188 323.30957031 C-12.89450844 321.55575546 -12.89450844 321.55575546 -12.58164978 319.76651001 C-11.92794066 316.02547847 -11.29456802 312.28146799 -10.66601562 308.53613281 C-9.84159301 303.62396135 -8.99639399 298.71602424 -8.13867188 293.80957031 C-7.86809715 292.1340358 -7.86809715 292.1340358 -7.59205627 290.4246521 C-5.55942001 278.81670614 -0.9432756 268.47979946 8.82226562 261.40332031 C17.61947982 255.87669409 24.85151768 254.87299164 35.07617188 254.85253906 C37.39127829 254.82735393 39.70638239 254.80195633 42.02148438 254.77636719 C45.63247942 254.74782081 49.24343396 254.72377998 52.85449219 254.70483398 C82.64578456 254.51838229 107.28643724 250.90206396 129.39648438 229.16113281 C130.44642578 228.13052734 130.44642578 228.13052734 131.51757812 227.07910156 C146.8760742 210.94220217 153.79976588 188.65584259 153.54492188 166.73925781 C152.69010016 146.13355546 147.2870452 125.94317426 133.39648438 110.16113281 C132.790625 109.47277344 132.18476563 108.78441406 131.56054688 108.07519531 C118.20542124 93.84789821 99.30734101 87.37232799 80.12586975 86.7624054 C77.57563835 86.73645696 75.02521535 86.72592822 72.47485352 86.72875977 C71.05393133 86.71971197 69.63301687 86.70937754 68.21211243 86.69787598 C64.40731543 86.67063332 60.60266776 86.6610668 56.797786 86.65502191 C52.80193528 86.64555161 48.80619246 86.6193423 44.81040955 86.59501648 C37.26732979 86.55158333 29.72427125 86.52289478 22.18110508 86.4996931 C13.58351808 86.47251605 4.98604089 86.42861303 -3.61146724 86.38340437 C-21.27542513 86.29089075 -38.93941211 86.21905882 -56.60351562 86.16113281 C-56.4527296 84.25965912 -56.29972979 82.3583609 -56.14581299 80.45713806 C-56.06085194 79.39833404 -55.97589088 78.33953001 -55.88835526 77.24864101 C-55.5053656 73.09723943 -54.87376937 69.0187291 -54.15039062 64.91503906 C-53.93724213 63.68828712 -53.93724213 63.68828712 -53.7197876 62.43675232 C-53.42014261 60.72644031 -53.11753452 59.01664486 -52.81201172 57.30737305 C-52.35536842 54.73407377 -51.91864037 52.15788419 -51.48242188 49.58105469 C-48.63374193 33.24580757 -44.72158985 18.65462737 -30.72851562 8.28613281 C-20.880691 1.86232106 -11.5756834 0.01456729 0 0 Z " fill="#98C31D" transform="translate(201.603515625,-0.1611328125)"/>
<path d="M0 0 C1.15231613 -0.00852997 2.30463226 -0.01705994 3.49186707 -0.02584839 C4.74192032 -0.02494202 5.99197357 -0.02403564 7.27990723 -0.02310181 C8.62079745 -0.02909158 9.96168423 -0.03589816 11.30256653 -0.04345703 C14.93268218 -0.06107433 18.56270347 -0.06581047 22.19285774 -0.0670886 C24.46270345 -0.06851269 26.73252534 -0.07278705 29.00236511 -0.07808304 C36.92611204 -0.0965661 44.8497918 -0.10475543 52.77355957 -0.10317993 C60.15249101 -0.10197758 67.53113041 -0.12310242 74.90998793 -0.15466726 C81.25326392 -0.18083256 87.5964445 -0.19154719 93.93977404 -0.19026911 C97.72494319 -0.18975974 101.5098524 -0.19542961 105.29496765 -0.21662521 C108.85411314 -0.23601329 112.41275071 -0.23612876 115.97191429 -0.22159195 C117.89587747 -0.21851011 119.81984074 -0.23517458 121.74372864 -0.25247192 C132.50590227 -0.17412222 132.50590227 -0.17412222 137.11779785 4.26742554 C139.15062081 10.36589442 138.15090623 18.41945557 135.80529785 24.39242554 C133.78475624 27.83482977 132.1258681 29.65049215 128.28818607 30.82953167 C125.91366468 31.3086111 123.75147423 31.39507162 121.3290863 31.39872742 C120.36870956 31.4027356 119.40833282 31.40674377 118.41885376 31.41087341 C117.37196381 31.4103447 116.32507385 31.40981598 115.24645996 31.40927124 C114.13878769 31.41274567 113.03111542 31.41622009 111.88987732 31.4197998 C109.48466939 31.42715152 107.07945469 31.43250002 104.6742382 31.43609047 C100.87147877 31.44325135 97.06884869 31.45891335 93.26612854 31.47743225 C82.45424681 31.52993344 71.64244962 31.57835654 60.83044434 31.59335327 C54.21863567 31.60261822 47.60711853 31.6326615 40.99542427 31.67467308 C38.47199536 31.68702028 35.94852032 31.69209761 33.42506218 31.68987465 C29.90292995 31.68753449 26.38174576 31.70958955 22.85974121 31.73739624 C21.81082703 31.73079483 20.76191284 31.72419342 19.68121338 31.71739197 C18.72365646 31.72985962 17.76609955 31.74232727 16.77952576 31.75517273 C15.94681121 31.75756108 15.11409666 31.75994944 14.25614834 31.76241016 C11.95266221 32.09772644 11.95266221 32.09772644 10.37209415 34.13782024 C7.320658 39.31869701 6.37968604 47.36253101 7.11779785 53.26742554 C8.66286251 55.30410168 9.83925941 56.12815632 12.11779785 57.26742554 C14.83724071 57.36916242 17.53195622 57.41107224 20.25183105 57.40927124 C21.09265228 57.41274567 21.93347351 57.41622009 22.79977417 57.4197998 C24.62933501 57.42716199 26.45890481 57.4325049 28.28847694 57.43609047 C31.18430994 57.44324566 34.07997247 57.45890522 36.97575378 57.47743225 C45.2104966 57.52994557 53.44514707 57.57788261 61.68005371 57.59335327 C66.71405239 57.60343165 71.74762406 57.63275365 76.78145409 57.67467308 C78.70034748 57.68699129 80.61930117 57.69210284 82.5382328 57.68987465 C85.22447934 57.68752316 87.90950011 57.70967634 90.59558105 57.73739624 C91.78417473 57.72749413 91.78417473 57.72749413 92.9967804 57.71739197 C97.99010655 57.80197598 100.62563575 58.66857882 104.11779785 62.26742554 C106.57461884 67.18106751 105.13539775 73.98137026 103.88342285 79.15023804 C102.61853405 82.64804278 100.77607568 84.67398375 98.11779785 87.26742554 C94.1713001 88.58292479 90.40181174 88.41181794 86.28771973 88.40927124 C85.38501846 88.41274567 84.4823172 88.41622009 83.55226135 88.4197998 C81.59120805 88.42715392 79.63014645 88.43250114 77.66908264 88.43609047 C74.56789366 88.44324985 71.46686344 88.45891101 68.36572266 88.47743225 C59.54823944 88.52993762 50.73084433 88.57791674 41.91320801 88.59335327 C36.52146593 88.60341198 31.13012466 88.63267921 25.73854065 88.67467308 C23.6812289 88.68701479 21.62386063 88.69209859 19.56651306 88.68987465 C16.69319565 88.68753224 13.82103721 88.70960557 10.94787598 88.73739624 C10.09375626 88.73079483 9.23963654 88.72419342 8.3596344 88.71739197 C3.79343122 88.73117144 3.79343122 88.73117144 0.11157227 91.15919495 C-2.73597025 97.20007922 -4.13971894 105.65532109 -2.88220215 112.26742554 C-1.28564239 114.31991636 -0.397759 115.17382324 2.19088554 115.64380646 C3.39376307 115.64487522 3.39376307 115.64487522 4.62094116 115.64596558 C5.5433963 115.65416824 6.46585144 115.66237091 7.41625977 115.67082214 C8.42619995 115.66467392 9.43614014 115.6585257 10.47668457 115.65219116 C11.54198395 115.65756393 12.60728333 115.66293671 13.7048645 115.66847229 C16.02112894 115.67826615 18.33743013 115.68118961 20.65371323 115.67811584 C24.31844427 115.67365 27.98268929 115.68760394 31.64736938 115.70651245 C39.42917085 115.74335587 47.21092199 115.75701332 54.99279785 115.76742554 C64.00204787 115.77949187 73.01106234 115.80099082 82.02020645 115.84742737 C85.63257265 115.86102529 89.24464327 115.85682115 92.85702515 115.85202026 C95.07139464 115.86135995 97.28576085 115.87152854 99.50012207 115.88265991 C101.00895966 115.87343758 101.00895966 115.87343758 102.54827881 115.86402893 C107.54070809 115.90815291 111.09609744 115.95557739 115.11779785 119.26742554 C117.18256484 121.60749479 118.07044286 123.24266342 118.2154541 126.38070679 C117.67047937 134.28948644 113.91155205 138.81881401 108.1920166 143.97055054 C101.18366429 148.35242053 93.05927466 147.53884164 85.10437012 147.49447632 C83.68463652 147.49391156 82.26490233 147.49423003 80.84516907 147.49536133 C77.00681134 147.49593331 73.16857954 147.48420407 69.33025098 147.47021341 C65.3130643 147.45768028 61.29587448 147.45653352 57.27867126 147.4541626 C49.67861007 147.44795541 42.07860667 147.43155491 34.47857088 147.41146362 C25.82320047 147.3890809 17.16782724 147.37810523 8.51243508 147.36807275 C-9.28581005 147.347188 -27.08400145 147.31202685 -44.88220215 147.26742554 C-45.10378316 140.1106432 -44.27435262 133.51786456 -43.01794434 126.4805603 C-42.72034462 124.76167099 -42.72034462 124.76167099 -42.41673279 123.00805664 C-41.76206529 119.240223 -41.09609538 115.47449714 -40.42907715 111.70883179 C-40.08426289 109.74339068 -39.73945292 107.77794877 -39.39519143 105.81241077 C-38.31376376 99.63885182 -37.22430321 93.4667479 -36.12976074 87.29550171 C-35.00519935 80.95418558 -33.89422418 74.61059592 -32.7899406 68.26571995 C-31.83726691 62.79481216 -30.87609892 57.32544232 -29.90824819 51.85719913 C-29.33210763 48.60159473 -28.76002477 45.34537573 -28.19423676 42.08795357 C-27.56124165 38.45126721 -26.91437567 34.81730486 -26.26403809 31.1836853 C-25.99106148 29.58971672 -25.99106148 29.58971672 -25.71257019 27.96354675 C-22.5398555 10.51453666 -22.5398555 10.51453666 -16.00720215 5.26742554 C-15.37040527 4.73117554 -14.7336084 4.19492554 -14.07751465 3.64242554 C-9.60255604 0.83960449 -5.21857016 0.01754433 0 0 Z " fill="#98C31D" transform="translate(1379.8822021484375,278.7325744628906)"/>
<path d="M0 0 C1.3429572 -0.00379007 2.68591047 -0.00929576 4.02885437 -0.01637268 C7.65061114 -0.0302498 11.27188878 -0.01921521 14.89361858 -0.00266147 C18.69358826 0.01125684 22.49353205 0.00472171 26.29351807 0.00120544 C32.66857572 -0.00149003 39.04344436 0.01192615 45.41845703 0.03515625 C52.78324245 0.06180761 60.14771292 0.0634962 67.51253009 0.05176789 C74.61125124 0.04098431 81.70985874 0.04717875 88.80857086 0.06132317 C91.82442164 0.06707337 94.84018898 0.06700804 97.85604095 0.06225777 C101.40534717 0.05748047 104.95430887 0.06762032 108.50354958 0.08921242 C110.4240568 0.0974153 112.34460919 0.09093716 114.26512146 0.08401489 C115.41172745 0.09391953 116.55833344 0.10382416 117.73968506 0.11402893 C119.23066523 0.11767377 119.23066523 0.11767377 120.7517662 0.12139225 C123.99653892 0.57347519 125.85165462 1.57153168 128.48144531 3.50170898 C131.67448783 8.29127277 130.93854565 12.85552655 129.98144531 18.39624023 C128.94307175 22.80342802 128.16177743 25.76904363 125.04394531 29.12670898 C121.21215256 31.1827929 118.01206659 31.62649226 113.69273376 31.63301086 C112.73235703 31.63701904 111.77198029 31.64102722 110.78250122 31.64515686 C109.73561127 31.64462814 108.68872131 31.64409943 107.61010742 31.64355469 C106.50243515 31.64702911 105.39476288 31.65050354 104.25352478 31.65408325 C101.84831685 31.66143497 99.44310215 31.66678347 97.03788567 31.67037392 C93.23512623 31.67753479 89.43249615 31.6931968 85.629776 31.7117157 C74.81789427 31.76421689 64.00609708 31.81263999 53.1940918 31.82763672 C46.58228313 31.83690167 39.97076599 31.86694494 33.35907173 31.90895653 C30.83564282 31.92130372 28.31216778 31.92638105 25.78870964 31.9241581 C22.26657741 31.92181794 18.74539322 31.943873 15.22338867 31.97167969 C14.17447449 31.96507828 13.1255603 31.95847687 12.04486084 31.95167542 C11.08730392 31.96414307 10.12974701 31.97661072 9.14317322 31.98945618 C8.31045867 31.99184453 7.47774412 31.99423288 6.6197958 31.99669361 C4.31630968 32.33200989 4.31630968 32.33200989 2.73574162 34.37210369 C-0.42056229 39.73103004 -0.97665343 47.39372573 -0.51855469 53.50170898 C-0.18855469 54.49170898 0.14144531 55.48170898 0.48144531 56.50170898 C4.4435632 57.97396198 8.67038279 57.64634244 12.8425293 57.64355469 C13.68364258 57.64702911 14.52475586 57.65050354 15.39135742 57.65408325 C17.21542642 57.66142702 19.03950428 57.66677974 20.86358452 57.67037392 C23.75117594 57.67754897 26.63859839 57.69322231 29.52613831 57.7117157 C37.73525718 57.76414415 45.94428164 57.81218092 54.15356445 57.82763672 C59.17690155 57.83771403 64.19981057 57.8670284 69.22297859 57.90895653 C71.13628974 57.92127117 73.04966131 57.92638694 74.96301079 57.9241581 C77.63946177 57.92180692 80.31468208 57.94395561 82.9909668 57.97167969 C84.17484734 57.96177757 84.17484734 57.96177757 85.38264465 57.95167542 C90.36770417 58.03645231 92.99428663 58.91152698 96.48144531 62.50170898 C99.03203114 67.60288063 97.40587925 74.84808714 96.24707031 80.22827148 C95.11241021 83.59751729 93.27936443 85.38620916 90.48144531 87.50170898 C86.53494756 88.81720824 82.7654592 88.64610139 78.65136719 88.64355469 C77.74866592 88.64702911 76.84596466 88.65050354 75.91590881 88.65408325 C73.95485551 88.66143737 71.99379391 88.66678459 70.0327301 88.67037392 C66.93154112 88.6775333 63.83051091 88.69319446 60.72937012 88.7117157 C51.9118869 88.76422107 43.09449179 88.81220019 34.27685547 88.82763672 C28.88511339 88.83769543 23.49377212 88.86696265 18.10218811 88.90895653 C16.04487636 88.92129823 13.98750809 88.92638203 11.93016052 88.9241581 C9.05684311 88.92181569 6.18468467 88.94388902 3.31152344 88.97167969 C2.45740372 88.96507828 1.603284 88.95847687 0.72328186 88.95167542 C-3.8366866 88.96717334 -3.8366866 88.96717334 -7.52478027 91.37760925 C-10.48875691 97.71283171 -11.13516843 105.59563505 -10.51855469 112.50170898 C-8.95592158 114.64114703 -8.07071098 115.40146185 -5.445467 115.8780899 C-4.24258946 115.87915867 -4.24258946 115.87915867 -3.01541138 115.88024902 C-2.09295624 115.88845169 -1.1705011 115.89665436 -0.22009277 115.90510559 C0.78984741 115.89895737 1.7997876 115.89280914 2.84033203 115.88647461 C3.90563141 115.89184738 4.97093079 115.89722015 6.06851196 115.90275574 C8.3847764 115.9125496 10.70107759 115.91547306 13.01736069 115.91239929 C16.68209173 115.90793344 20.34633675 115.92188739 24.01101685 115.9407959 C31.79281831 115.97763932 39.57456945 115.99129677 47.35644531 116.00170898 C56.36569533 116.01377532 65.3747098 116.03527427 74.38385391 116.08171082 C77.99622011 116.09530874 81.60829073 116.0911046 85.22067261 116.08630371 C87.43504211 116.0956434 89.64940832 116.10581198 91.86376953 116.11694336 C93.37260712 116.10772102 93.37260712 116.10772102 94.91192627 116.09831238 C99.91192505 116.14250326 103.44353878 116.2016154 107.48144531 119.50170898 C109.59750113 121.69512598 110.41959494 122.82023039 110.69628906 125.86889648 C109.77734788 134.17819559 106.68933388 138.68007569 100.55566406 144.20483398 C93.54731175 148.58670398 85.42292212 147.77312509 77.46801758 147.72875977 C76.04828398 147.72819501 74.62854979 147.72851348 73.20881653 147.72964478 C69.3704588 147.73021676 65.532227 147.71848752 61.69389844 147.70449686 C57.67671176 147.69196372 53.65952194 147.69081697 49.64231873 147.68844604 C42.04225753 147.68223885 34.44225413 147.66583836 26.84221834 147.64574707 C18.18684793 147.62336435 9.5314747 147.61238867 0.87608254 147.6023562 C-16.92216259 147.58147144 -34.72035398 147.5463103 -52.51855469 147.50170898 C-52.76185001 140.73250092 -51.83050589 134.4668838 -50.63842773 127.8125 C-50.43842163 126.66511353 -50.23841553 125.51772705 -50.03234863 124.33557129 C-49.37185521 120.55767771 -48.70140587 116.7816322 -48.03027344 113.00561523 C-47.56623463 110.37066992 -47.10260081 107.73565587 -46.63935852 105.10057068 C-45.66822073 99.58293304 -44.6913389 94.06633499 -43.71118164 88.55029297 C-42.58165417 82.19313663 -41.46198627 75.83430241 -40.34744424 69.4745031 C-39.38686509 63.99479105 -38.4208988 58.51604823 -37.45051223 53.03806442 C-36.87246797 49.77488716 -36.296772 46.51133066 -35.72485924 43.24707222 C-35.08549523 39.60360615 -34.43732225 35.96181226 -33.78686523 32.3203125 C-33.60128555 31.25250046 -33.41570587 30.18468842 -33.22450256 29.08451843 C-29.91627262 10.75060474 -29.91627262 10.75060474 -22.51855469 4.50170898 C-15.39546897 -0.06437648 -8.23398922 -0.06415497 0 0 Z " fill="#98C31D" transform="translate(671.5185546875,278.498291015625)"/>
<path d="M0 0 C1.15660629 -0.00860046 2.31321259 -0.01720093 3.50486755 -0.02606201 C5.41015228 -0.03245193 5.41015228 -0.03245193 7.35392761 -0.03897095 C8.70422577 -0.046874 10.05452183 -0.05514308 11.40481567 -0.06375122 C15.8398996 -0.08994512 20.27499284 -0.10527499 24.71012878 -0.11953735 C26.23765761 -0.12489788 27.76518637 -0.13027539 29.29271507 -0.13566971 C35.64680698 -0.15729347 42.00089637 -0.17603024 48.35501575 -0.1872921 C57.45806722 -0.20353307 66.560692 -0.2367197 75.66358262 -0.29369295 C82.06623173 -0.33239872 88.46876673 -0.35192544 94.87152976 -0.35721266 C98.69483908 -0.36086495 102.51769304 -0.3728725 106.34087563 -0.4053154 C109.93860507 -0.43540835 113.53560391 -0.44170417 117.13343239 -0.42993164 C119.07893846 -0.42960601 121.02439953 -0.45406301 122.96974182 -0.47930908 C132.51119015 -0.41118386 132.51119015 -0.41118386 136.21432495 2.50701904 C139.49885554 6.41209429 139.58938869 9.22705469 139.20622253 14.1890564 C139.03606628 15.18807983 138.86591003 16.18710327 138.69059753 17.21640015 C138.53075378 18.21800171 138.37091003 19.21960327 138.20622253 20.2515564 C136.98368665 24.88596537 135.43929879 27.48809931 131.44059753 30.15390015 C129.27101231 30.41002655 129.27101231 30.41002655 126.70294189 30.41891479 C125.24136406 30.43132454 125.24136406 30.43132454 123.7502594 30.44398499 C122.68264374 30.44300308 121.61502808 30.44202118 120.51506042 30.44100952 C118.82691978 30.45125908 118.82691978 30.45125908 117.10467529 30.4617157 C114.65745103 30.47532041 112.2101982 30.48436293 109.76294136 30.48942566 C105.89273218 30.49769399 102.02276131 30.51817987 98.15261841 30.54196167 C89.93614581 30.59025508 81.71965223 30.62325017 73.50309753 30.65390015 C63.98745293 30.68940693 54.47194039 30.73139664 44.95640373 30.7898407 C41.13854327 30.80995109 37.32077112 30.81823754 33.50286865 30.82614136 C31.16708553 30.8391112 28.83130538 30.85263114 26.49552917 30.86679077 C24.89714203 30.86531792 24.89714203 30.86531792 23.26646423 30.86381531 C22.28925919 30.87208847 21.31205414 30.88036163 20.30523682 30.8888855 C19.45739655 30.89181862 18.60955629 30.89475174 17.7360239 30.89777374 C15.19582111 31.18121259 13.59311649 31.78848638 11.44059753 33.15390015 C9.52179721 36.79897903 8.82166933 40.61514192 8.12809753 44.65390015 C7.92571472 45.75733765 7.72333191 46.86077515 7.51481628 47.99765015 C7.4271117 51.72740316 8.12514907 53.26873637 10.44059753 56.15390015 C14.22053324 57.41387872 17.75092201 57.29027743 21.68815613 57.27987671 C22.52912338 57.28174484 23.37009064 57.28361298 24.23654175 57.28553772 C26.06336027 57.28954183 27.89018381 57.29161657 29.71700668 57.29199982 C33.59992954 57.29541401 37.48268475 57.31677328 41.36554909 57.33723068 C48.59631696 57.37526719 55.8269057 57.40651328 63.05778503 57.40438843 C68.08651207 57.40360189 73.11462545 57.42693953 78.14319229 57.46627045 C80.05929939 57.47674013 81.97547723 57.47824736 83.89159775 57.4706192 C86.57315853 57.46100817 89.25285729 57.48215764 91.93424988 57.51034546 C92.72507462 57.50014877 93.51589935 57.48995209 94.33068848 57.47944641 C98.35895966 57.55535566 100.22080347 57.97971538 103.41706848 60.51272583 C106.48831569 64.52141512 106.63770192 67.47851286 106.05778503 72.4078064 C103.55264235 83.57546877 103.55264235 83.57546877 98.44059753 87.15390015 C94.52212625 88.46005724 90.78728141 88.30657471 86.70231628 88.31161499 C85.80936859 88.31669571 84.9164209 88.32177643 83.99641418 88.32701111 C82.05664553 88.33771421 80.11686453 88.34633463 78.17707825 88.35313034 C75.10949722 88.36490907 72.04205763 88.38435778 68.97453308 88.40625 C60.25265683 88.4679118 51.53079596 88.52198204 42.8087616 88.55526733 C37.47542486 88.57617013 32.14234732 88.61143457 26.80915833 88.65602493 C24.77417544 88.67021673 22.73914673 88.67891451 20.70411682 88.68207932 C17.86209323 88.68696827 15.02076244 88.71007259 12.17887878 88.73739624 C11.3341098 88.73439011 10.48934082 88.73138397 9.61897278 88.72828674 C5.40252465 88.66097035 5.40252465 88.66097035 1.76254272 90.4840641 C-0.27419371 93.05680005 -0.63961585 95.71899642 -1.30940247 98.90390015 C-1.57237122 100.0949939 -1.83533997 101.28608765 -2.10627747 102.51327515 C-2.58447129 106.35531514 -2.39571191 109.3812153 -1.55940247 113.15390015 C0.88450452 115.59780713 1.50346356 115.40406667 4.85472107 115.40545654 C6.24679527 115.41353081 6.24679527 115.41353081 7.66699219 115.42176819 C8.68830734 115.4176442 9.7096225 115.4135202 10.7618866 115.40927124 C12.37183754 115.41470192 12.37183754 115.41470192 14.01431274 115.42024231 C16.35133767 115.42714996 18.68837877 115.4296392 21.02541351 115.42829514 C24.72387673 115.42733305 28.42204677 115.44023516 32.12046814 115.45727539 C42.63812928 115.50364073 53.15575264 115.52815259 63.67350769 115.53475952 C70.10147693 115.53977189 76.52914206 115.56401189 82.95700836 115.60008621 C85.4081871 115.60989397 87.85940764 115.61221088 90.31060028 115.60691452 C93.74130762 115.59985121 97.17110864 115.61711362 100.60173035 115.63973999 C101.61494858 115.63156754 102.62816681 115.62339508 103.67208862 115.61497498 C109.55564788 115.68401521 112.96146946 116.22353031 117.44059753 120.15390015 C119.45668644 124.18607796 119.03673648 129.05412413 117.82731628 133.3140564 C115.44100892 138.76997499 111.66999108 142.35657549 106.44059753 145.15390015 C99.60017758 147.7712139 92.78107282 147.42789434 85.53483582 147.39682007 C84.12657585 147.39789417 82.71831631 147.39983476 81.31005859 147.40257263 C77.50263207 147.40740096 73.69532357 147.39979248 69.88791132 147.38961959 C65.90188393 147.38081463 61.91585996 147.38259695 57.92982483 147.38298035 C51.24361706 147.38204537 44.55745482 147.37338043 37.8712616 147.35971069 C30.13275262 147.34394838 22.39429334 147.338714 14.65576947 147.33944625 C7.21214998 147.34005552 -0.23145328 147.33496175 -7.6750679 147.32665443 C-10.84491731 147.32311733 -14.01476098 147.32129059 -17.18461227 147.32076073 C-20.90940751 147.31975969 -24.63416067 147.31368282 -28.35894203 147.30359459 C-29.72919902 147.30066311 -31.09946084 147.29944552 -32.46972084 147.30002213 C-34.33229136 147.30050951 -36.19486011 147.29426331 -38.05741882 147.28761292 C-39.6241953 147.28509915 -39.6241953 147.28509915 -41.22262383 147.2825346 C-43.55940247 147.15390015 -43.55940247 147.15390015 -44.55940247 146.15390015 C-44.35439244 138.81108111 -42.85546853 131.47201959 -41.5974884 124.25350952 C-41.40054886 123.10743729 -41.20360931 121.96136505 -41.0007019 120.78056335 C-40.35273451 117.01882655 -39.69895139 113.25813816 -39.04377747 109.49765015 C-38.81925148 108.20642746 -38.59472549 106.91520477 -38.36339569 105.58485413 C-37.41929291 100.15727691 -36.47336708 94.73002372 -35.52215195 89.30368805 C-34.16661317 81.57082729 -32.82192795 73.83626432 -31.49264121 66.09884596 C-30.55248506 60.63160478 -29.60015149 55.16656874 -28.63886666 49.70300341 C-28.06703825 46.45121899 -27.50191858 43.19851399 -26.94660187 39.94386292 C-26.32551485 36.31123126 -25.68457266 32.6826208 -25.03889465 29.05429077 C-24.86207657 27.99321609 -24.68525848 26.93214142 -24.50308228 25.83891296 C-23.10854253 18.17744599 -20.97769538 10.43023738 -15.20783997 4.8999939 C-14.45760559 4.46815796 -13.70737122 4.03632202 -12.93440247 3.59140015 C-12.17901184 3.13636108 -11.42362122 2.68132202 -10.64533997 2.2124939 C-6.96026929 0.34235503 -4.07619097 0.0225536 0 0 Z " fill="#98C31D" transform="translate(1131.5594024658203,84.84609985351563)"/>
<path d="M0 0 C1.1233802 -0.00525696 1.1233802 -0.00525696 2.26945496 -0.01062012 C4.73441981 -0.01938814 7.19909492 -0.01360099 9.6640625 -0.00683594 C11.39314834 -0.00818513 13.12223381 -0.01012779 14.85131836 -0.01263428 C18.47594819 -0.01557984 22.10047933 -0.01131038 25.72509766 -0.00195312 C30.33319075 0.0093727 34.94104905 0.00292222 39.5491333 -0.00909805 C43.12345079 -0.01639068 46.69771441 -0.01399395 50.27203369 -0.00884247 C51.96860788 -0.00752276 53.6651872 -0.0090937 55.36175537 -0.01380157 C78.13658775 -0.063087 99.85207949 2.81050901 117.1875 19.01269531 C129.37293316 32.03616012 131.16498063 47.19499049 130.671875 64.26660156 C129.51238125 87.20124205 120.0131488 107.71443224 103.359375 123.62597656 C79.87614934 144.34104203 51.26859009 147.42863818 21.21875 147.39160156 C19.28630562 147.39227609 17.35386133 147.39324736 15.42141724 147.39450073 C11.39551984 147.39596716 7.36964478 147.3938549 3.34375 147.38916016 C-1.82703968 147.38342496 -6.99777789 147.38677228 -12.16856575 147.39273262 C-16.14723097 147.39633414 -20.12588383 147.39520221 -24.10454941 147.39260483 C-26.01282635 147.3919364 -27.92110439 147.39276105 -29.82938004 147.39508438 C-32.4814989 147.3976083 -35.1335321 147.39377582 -37.78564453 147.38818359 C-38.97460075 147.39121994 -38.97460075 147.39121994 -40.18757629 147.39431763 C-45.59666676 147.37305981 -45.59666676 147.37305981 -46.7109375 146.25878906 C-47.07307649 139.51649703 -46.02549146 133.21042196 -44.84667969 126.58544922 C-44.64827988 125.43966904 -44.44988007 124.29388885 -44.24546814 123.11338806 C-43.59000257 119.34026679 -42.92441632 115.5690198 -42.2578125 111.79785156 C-41.91303322 109.83121505 -41.56825733 107.86457792 -41.22392678 105.89786279 C-40.14182181 99.71821041 -39.05239007 93.5398802 -37.95849609 87.36230469 C-36.83443449 81.01353841 -35.7233957 74.66258991 -34.61867595 68.31043208 C-33.66596598 62.83530594 -32.70477403 57.36171352 -31.73698354 51.88923299 C-31.16075291 48.63027421 -30.58867677 45.37068746 -30.02297211 42.10988235 C-29.38994995 38.46830523 -28.74307881 34.8294429 -28.09277344 31.19091797 C-27.91078903 30.1267012 -27.72880463 29.06248444 -27.54130554 27.96601868 C-24.37157895 10.50830026 -24.37157895 10.50830026 -17.8359375 5.25878906 C-17.19914063 4.72253906 -16.56234375 4.18628906 -15.90625 3.63378906 C-10.8494196 0.46652162 -5.84030245 -0.03401354 0 0 Z M6.2890625 36.25878906 C5.27349087 39.427473 5.27349087 39.427473 4.73339844 42.94165039 C4.61577148 43.59277298 4.49814453 44.24389557 4.37695312 44.91474915 C3.99435681 47.0544661 3.63354798 49.19721416 3.2734375 51.34082031 C3.0112374 52.83928334 2.74789289 54.33754653 2.48345947 55.83561707 C1.93308224 58.97196603 1.39280457 62.10982687 0.86035156 65.24926758 C0.18046522 69.25639339 -0.51849079 73.25988176 -1.22436905 77.26250172 C-1.76875682 80.35605522 -2.30584966 83.45083861 -2.84050751 86.54608727 C-3.09572782 88.02181282 -3.35248161 89.49727407 -3.61084747 90.97245216 C-6.50350392 103.07348893 -6.50350392 103.07348893 -4.39257812 114.7277832 C-0.05245471 117.20565228 4.28591986 116.80814924 9.1953125 116.75488281 C10.27099487 116.75633804 11.34667725 116.75779327 12.45495605 116.7592926 C14.73464663 116.75763231 17.01434825 116.74605665 19.29394531 116.7253418 C22.74854447 116.69662586 26.20158519 116.70468384 29.65625 116.71777344 C31.87761151 116.71152814 34.09896821 116.70313105 36.3203125 116.69238281 C37.33951782 116.69531845 38.35872314 116.69825409 39.40881348 116.70127869 C55.4938579 116.49461209 69.47826926 110.80486492 81.13671875 99.63769531 C90.4795017 89.31146152 94.68649735 75.87473772 94.5 62.12988281 C93.81683692 52.83127423 90.14011145 46.04338528 83.578125 39.57128906 C74.53242681 31.93778848 62.76172933 30.64098899 51.34765625 30.69238281 C50.17695084 30.68618423 49.00624542 30.67998566 47.80006409 30.67359924 C45.35231348 30.66655575 42.90451441 30.66957807 40.45678711 30.68237305 C36.70403622 30.6963731 32.95371812 30.66192301 29.20117188 30.62402344 C26.81249939 30.62307336 24.42382378 30.62492507 22.03515625 30.62988281 C20.91539902 30.6166246 19.79564178 30.60336639 18.64195251 30.58970642 C17.08366478 30.60850609 17.08366478 30.60850609 15.49389648 30.62768555 C14.58268539 30.62864731 13.6714743 30.62960907 12.73265076 30.63059998 C9.17285888 31.54573877 8.1907902 33.16971185 6.2890625 36.25878906 Z " fill="#98C31D" transform="translate(951.7109375,84.7412109375)"/>
<path d="M0 0 C0.65484375 0.47179687 1.3096875 0.94359375 1.984375 1.4296875 C12.52225931 9.68280928 18.91155588 22.98241914 21 36 C23.23272953 61.20147199 17.00321586 85.22691581 1 105 C-16.07974142 124.76431231 -39.71529217 136.64987544 -65.77734375 138.859375 C-90.74218044 140.43887258 -115.35363588 138.51940356 -135.1875 121.8125 C-145.96299808 111.73055831 -152.68139127 97.28354191 -153.30078125 82.4921875 C-153.32009028 80.95324117 -153.32357676 79.4140276 -153.3125 77.875 C-153.30758545 77.05169189 -153.3026709 76.22838379 -153.29760742 75.38012695 C-152.82999314 50.58218203 -142.29544698 28.85042534 -124.96191406 11.52514648 C-94.52576765 -17.65758239 -34.79346696 -25.69186467 0 0 Z M-105 38 C-114.6941548 50.25311281 -117.44458706 63.75659691 -116 79 C-114.37098039 86.78875002 -109.96037388 92.82684531 -104 98 C-89.98866445 106.9900588 -71.49306844 107.27548718 -55.46875 104.3125 C-41.10296725 100.49857538 -29.14459418 91.68770468 -21.50390625 78.94140625 C-16.00807452 68.19241589 -12.99018089 55.8754324 -16.125 44 C-19.02173436 35.32327009 -23.98371423 28.52554515 -32 24 C-38.12111643 21.21198784 -44.24870153 19.27140898 -51 19 C-52.08925781 18.9484375 -53.17851563 18.896875 -54.30078125 18.84375 C-73.60810885 18.3625705 -91.72303162 23.17919809 -105 38 Z " fill="#98C31D" transform="translate(953,290)"/>
<path d="M0 0 C0.89040482 -0.00511093 1.78080963 -0.01022186 2.69819641 -0.01548767 C5.63569922 -0.02935932 8.5729664 -0.02842706 11.51049805 -0.02612305 C13.56870103 -0.0300146 15.62690321 -0.03435022 17.68510437 -0.03910828 C22.00331214 -0.04656774 26.32143819 -0.04628359 30.63964844 -0.04101562 C36.12860552 -0.03525681 41.61722122 -0.052066 47.10612202 -0.0753603 C51.36254276 -0.09022539 55.61888404 -0.09095153 59.87532616 -0.08785057 C61.89598447 -0.08835857 63.91664785 -0.09349644 65.93728065 -0.10366249 C85.14358389 -0.18835083 106.33611424 0.03018609 120.9597168 14.2746582 C130.48517346 25.5815934 131.06268325 37.0602133 129.9597168 51.2746582 C127.98272672 65.64212417 120.11984522 78.23084336 108.9597168 87.2746582 C93.01550296 98.48595804 75.61162037 101.54402623 56.47911072 101.61018372 C54.12454843 101.61860095 51.77035086 101.63921177 49.41589355 101.66271973 C43.58113425 101.71859743 37.74628737 101.75442807 31.91137695 101.79034424 C26.95049487 101.82160531 21.98979927 101.8607541 17.02906799 101.91059875 C14.7135669 101.93060493 12.39821087 101.93896741 10.0826416 101.94689941 C8.66601019 101.95986827 7.24938367 101.97338805 5.83276367 101.98754883 C3.98177063 101.99848572 3.98177063 101.99848572 2.09338379 102.00964355 C-0.8890101 102.26186502 -2.5873848 102.60429081 -5.0402832 104.2746582 C-6.08006706 106.35218384 -6.08006706 106.35218384 -6.6027832 108.8996582 C-6.84254883 109.87805664 -7.08231445 110.85645508 -7.3293457 111.86450195 C-7.9879192 115.02348362 -8.56194096 118.18379403 -9.11157227 121.36279297 C-10.53365095 129.51509602 -11.80375855 135.96457617 -17.7902832 142.0871582 C-24.60233772 146.6721949 -30.46349245 147.73469695 -38.4777832 147.5246582 C-39.29182617 147.51950195 -40.10586914 147.5143457 -40.94458008 147.5090332 C-46.88518229 147.42975911 -46.88518229 147.42975911 -48.0402832 146.2746582 C-47.86441955 137.79473293 -46.55444334 129.42806456 -45.07836914 121.09375 C-44.8814296 119.95378067 -44.68449005 118.81381134 -44.48158264 117.63929749 C-43.83615602 113.91625286 -43.18122102 110.19497279 -42.5246582 106.47387695 C-42.18300657 104.52625405 -41.84135622 102.57863091 -41.49985433 100.63098174 C-40.42883233 94.52561842 -39.35003924 88.42166042 -38.26733398 82.31835938 C-37.15481306 76.04563234 -36.06023028 69.76994642 -34.97352195 63.49270123 C-33.92131465 57.42074392 -32.84991455 51.35231622 -31.77155304 45.28495216 C-31.31773502 42.71640822 -30.86964648 40.14684494 -30.4274826 37.57626915 C-29.80796754 33.9839166 -29.16658097 30.39611865 -28.51977539 26.80859375 C-28.25454826 25.22729172 -28.25454826 25.22729172 -27.98396301 23.61404419 C-26.27575673 14.37469271 -22.83741384 7.68491212 -15.0402832 2.2746582 C-9.95819134 0.11586974 -5.42155779 -0.01616904 0 0 Z M6.58325195 33.65361023 C4.88927968 36.38837244 4.21631207 38.3558023 3.6940918 41.51293945 C3.52651367 42.49842773 3.35893555 43.48391602 3.1862793 44.49926758 C2.95038086 46.02777344 2.95038086 46.02777344 2.7097168 47.5871582 C2.53698242 48.59456055 2.36424805 49.60196289 2.1862793 50.63989258 C0.77909106 58.92982237 0.77909106 58.92982237 0.9597168 67.2746582 C3.52110593 69.88559642 5.20575847 71.1431861 8.83399963 71.77586365 C9.88812546 71.77602982 10.94225128 71.77619598 12.02832031 71.77636719 C13.23049698 71.78574814 14.43267365 71.79512909 15.67127991 71.80479431 C16.96400314 71.79356033 18.25672638 71.78232635 19.58862305 71.77075195 C20.94278542 71.77090717 22.29694823 71.77239987 23.65110779 71.77516174 C26.48993575 71.77654473 29.32825797 71.76401712 32.16699219 71.74121094 C35.77219582 71.71301607 39.37654775 71.71551257 42.98181248 71.72830105 C45.78147903 71.73532757 48.58095578 71.72738745 51.38059807 71.71504402 C53.34556372 71.70843872 55.31055638 71.71263613 57.27552795 71.71714783 C68.279578 71.60313662 79.15691092 70.44022724 87.9597168 63.2746582 C92.71892627 58.39020638 94.05728507 53.52301266 94.4597168 46.8371582 C94.35302066 41.93580423 93.30507538 39.32505663 90.0534668 35.7121582 C82.02155778 30.19771321 73.12409703 30.80076588 63.7878418 30.8059082 C62.21701793 30.79879852 60.64619664 30.79109835 59.07537842 30.78283691 C55.79733025 30.76944476 52.51952282 30.76780163 49.24145508 30.77368164 C45.04234592 30.77960206 40.8443833 30.74886685 36.64549637 30.70856476 C33.40781437 30.68272636 30.17041097 30.67980621 26.93264008 30.68345642 C25.38407232 30.68176449 23.8354918 30.67211477 22.28702545 30.65431213 C20.12537683 30.63217394 17.96608386 30.64179032 15.80444336 30.65942383 C14.57614807 30.65736938 13.34785278 30.65531494 12.08233643 30.65319824 C8.78509042 31.00863148 8.78509042 31.00863148 6.58325195 33.65361023 Z " fill="#98C31D" transform="translate(489.040283203125,278.725341796875)"/>
<path d="M0 0 C0.8809433 -0.00525696 1.7618866 -0.01051392 2.66952515 -0.01593018 C5.56380295 -0.02906301 8.4575238 -0.020409 11.35180664 -0.01025391 C13.38473108 -0.01227819 15.41765481 -0.01519257 17.45057678 -0.01895142 C21.70979735 -0.0233671 25.96882883 -0.01697405 30.22802734 -0.00292969 C35.6407217 0.01406337 41.05296643 0.0043791 46.46564388 -0.01364708 C50.66717288 -0.02458963 54.86859886 -0.02098943 59.0701313 -0.0132637 C61.06287249 -0.01128534 63.05562355 -0.01363614 65.0483532 -0.02070236 C84.78896345 -0.07529646 105.6941642 0.4536725 120.69555664 14.99755859 C128.00217206 23.20241848 130.34824559 32.56918119 130.06274414 43.38818359 C128.77167279 59.64298357 122.64975097 74.05954888 110.60961914 85.12255859 C106.55929568 88.41735187 102.50669677 91.08253812 97.82446289 93.38818359 C96.91180664 93.83806641 95.99915039 94.28794922 95.05883789 94.75146484 C81.58443482 100.8581796 68.06577732 101.82864177 53.53149414 101.82958984 C51.92582519 101.8413983 50.32016708 101.8547708 48.71452332 101.86961365 C44.53889757 101.90538161 40.36336808 101.92588622 36.18762207 101.94116211 C29.46800454 101.96624611 22.74859893 102.00569104 16.02918053 102.06306267 C13.69370313 102.07933066 11.35843036 102.08316068 9.02290344 102.08607483 C7.59583173 102.09584719 6.16876327 102.10610981 4.74169922 102.11694336 C3.49898758 102.12121841 2.25627594 102.12549347 0.97590637 102.12989807 C-2.02091243 102.37551089 -3.7281728 102.68042446 -6.17553711 104.38818359 C-7.18606706 106.86491555 -7.18606706 106.86491555 -7.67553711 109.88818359 C-7.91788086 111.04705078 -8.16022461 112.20591797 -8.40991211 113.39990234 C-8.81578621 115.47501254 -9.20501659 117.55185166 -9.57983398 119.6328125 C-12.90329179 137.96160574 -12.90329179 137.96160574 -20.17553711 143.38818359 C-24.85460574 146.23232335 -29.02648645 147.51255044 -34.46850586 147.52099609 C-35.26321289 147.52228516 -36.05791992 147.52357422 -36.87670898 147.52490234 C-37.69719727 147.52103516 -38.51768555 147.51716797 -39.36303711 147.51318359 C-40.19512695 147.51705078 -41.0272168 147.52091797 -41.88452148 147.52490234 C-48.04886619 147.51485451 -48.04886619 147.51485451 -49.17553711 146.38818359 C-48.98363618 138.64540137 -47.53570667 130.95200695 -46.19775391 123.3425293 C-45.99920807 122.19309845 -45.80066223 121.0436676 -45.59609985 119.85940552 C-44.94395586 116.09337495 -44.28493252 112.32859508 -43.62475586 108.56396484 C-43.28128121 106.59719979 -42.93780742 104.63043458 -42.5944379 102.66365117 C-41.51685059 96.49344778 -40.43364854 90.32424655 -39.34765625 84.15551758 C-38.231215 77.8128445 -37.12771273 71.46800889 -36.02992696 65.12208301 C-35.08251444 59.6492899 -34.1253819 54.17825231 -33.16091281 48.70843953 C-32.58692404 45.45200096 -32.01813871 42.19480343 -31.45700645 38.93612099 C-30.83037424 35.30376175 -30.18788962 31.67454295 -29.54150391 28.0456543 C-29.36109055 26.97896011 -29.18067719 25.91226593 -28.99479675 24.81324768 C-27.63706401 17.32877244 -25.88226751 11.1564306 -20.42553711 5.57568359 C-13.73279632 1.07095422 -7.87116708 -0.05871063 0 0 Z M5.94898987 32.78930664 C4.57826758 34.73822945 4.14762196 36.29710747 3.69165039 38.63427734 C3.52528076 39.46628662 3.35891113 40.2982959 3.1875 41.15551758 C3.02644775 42.03667236 2.86539551 42.91782715 2.69946289 43.82568359 C2.5313208 44.72424072 2.36317871 45.62279785 2.18994141 46.54858398 C1.71457699 49.15874542 1.26416019 51.77180295 0.82446289 54.38818359 C0.60918945 55.64630859 0.39391602 56.90443359 0.17211914 58.20068359 C-0.71963674 63.87652819 -0.71963674 63.87652819 1.48461914 69.00170898 C5.98115741 73.2698802 12.91038028 72.05379229 18.67211914 71.98193359 C20.0486999 71.9802199 21.42528393 71.98029081 22.80186462 71.98205566 C25.68788896 71.9804037 28.57313544 71.96174653 31.45898438 71.93017578 C35.1247448 71.890759 38.78947535 71.88610086 42.45540714 71.89363861 C45.30141827 71.89673912 48.14720601 71.88447567 50.99316216 71.86750793 C52.99135451 71.85722069 54.98958942 71.85663274 56.98780823 71.85632324 C68.40217477 71.71035416 79.37197026 70.75900962 87.82446289 62.38818359 C92.16189606 57.02346362 94.16919322 51.67165644 93.69946289 44.76318359 C93.05173685 40.57075902 92.14201738 38.22024231 88.82446289 35.38818359 C80.48229388 30.58672907 71.74774046 30.8165896 62.42211914 30.89208984 C60.85176018 30.8919346 59.28140085 30.89044143 57.71104431 30.88768005 C54.44065146 30.88630379 51.17070137 30.89873313 47.90039062 30.92163086 C43.70819928 30.9501791 39.5167332 30.9472236 35.32448673 30.93454075 C32.09113855 30.92759442 28.85795858 30.93535802 25.62463188 30.94779778 C24.0780648 30.95231091 22.53147967 30.95265027 20.98491096 30.94873238 C18.83086984 30.94582612 16.6778392 30.96229113 14.52392578 30.98413086 C13.29944229 30.98953384 12.0749588 30.99493683 10.81336975 31.00050354 C7.83995121 31.13773036 7.83995121 31.13773036 5.94898987 32.78930664 Z " fill="#98C31D" transform="translate(1028.175537109375,278.61181640625)"/>
<path d="M0 0 C0.89069687 -0.00525696 1.78139374 -0.01051392 2.69908142 -0.01593018 C5.62582275 -0.0290646 8.55201345 -0.02040849 11.47875977 -0.01025391 C13.53410444 -0.01227812 15.58944841 -0.01519245 17.64479065 -0.01895142 C21.9510889 -0.0233673 26.25720012 -0.01697332 30.56347656 -0.00292969 C36.03670334 0.01406446 41.50948551 0.00437852 46.98269558 -0.01364708 C51.23054737 -0.02458815 55.47829723 -0.0209901 59.72615242 -0.0132637 C61.7412223 -0.011285 63.75630193 -0.01363742 65.7713604 -0.02070236 C97.8486791 -0.10841629 97.8486791 -0.10841629 110.73266602 7.38818359 C111.8831543 8.0359375 111.8831543 8.0359375 113.05688477 8.69677734 C121.17716155 13.64947508 126.06156935 20.11002021 129.03735352 29.14990234 C132.22014274 43.97311732 129.20641235 59.8809782 121.47094727 72.83740234 C111.24454587 87.84378462 96.83757526 96.13476289 79.31082153 99.90982056 C71.27342104 101.41452001 63.39605968 101.68280485 55.25205994 101.69314384 C52.89749171 101.69686251 50.54332445 101.71372834 48.18884277 101.73390198 C41.50495834 101.78884452 34.82102197 101.82013948 28.13696289 101.84448242 C24.02516287 101.860348 19.91366219 101.89053058 15.80201721 101.9292469 C14.24234689 101.9408787 12.68262323 101.94682709 11.12290955 101.94692802 C8.95019023 101.94711994 6.77830295 101.96536713 4.60571289 101.98754883 C3.37171753 101.99261948 2.13772217 101.99769012 0.86633301 102.00291443 C-2.51115898 102.4181607 -3.89769754 102.98845787 -6.26733398 105.38818359 C-7.28559208 108.22958666 -7.28559208 108.22958666 -7.79467773 111.52490234 C-8.14755859 113.35118164 -8.14755859 113.35118164 -8.50756836 115.21435547 C-8.96887325 117.76897665 -9.42981644 120.32366318 -9.89038086 122.87841797 C-11.54115926 131.42018415 -13.28116098 138.09525807 -20.14233398 143.76318359 C-26.6504172 147.14738686 -32.53690132 147.66335785 -39.70483398 147.51318359 C-40.53176758 147.50416016 -41.35870117 147.49513672 -42.21069336 147.48583984 C-44.22970107 147.46249871 -46.24855755 147.42663648 -48.26733398 147.38818359 C-49.3467449 144.05770593 -49.17433804 141.64531678 -48.5725708 138.21551514 C-48.30346893 136.64695518 -48.30346893 136.64695518 -48.02893066 135.04670715 C-47.72203308 133.33386787 -47.72203308 133.33386787 -47.40893555 131.58642578 C-47.1993219 130.3794957 -46.98970825 129.17256561 -46.77374268 127.92906189 C-46.19706746 124.61986022 -45.61297983 121.3121391 -45.02508259 118.00492382 C-44.41020397 114.53820073 -43.80348722 111.07004804 -43.19549561 107.60211182 C-42.17228814 101.77372673 -41.14219068 95.94659012 -40.1081543 90.12011719 C-38.91536818 83.39857564 -37.7340211 76.67509947 -36.55873132 69.95047832 C-35.4258652 63.47046374 -34.28425137 56.99201822 -33.13890839 50.5141983 C-32.65278897 47.76372548 -32.16980166 45.01273039 -31.68939972 42.26125336 C-31.01626778 38.40841229 -30.33039612 34.55789788 -29.64331055 30.70751953 C-29.44680908 29.5737236 -29.25030762 28.43992767 -29.04785156 27.27177429 C-26.21943293 11.59320181 -26.21943293 11.59320181 -21.07983398 6.57568359 C-20.5500293 6.03298828 -20.02022461 5.49029297 -19.47436523 4.93115234 C-13.34992444 0.64946365 -7.23593467 -0.05335961 0 0 Z M6.73266602 32.38818359 C3.62698788 37.04670079 3.2357137 42.27159934 2.28076172 47.72998047 C1.92201264 49.75277148 1.53588791 51.76911152 1.14868164 53.78662109 C0.80933594 55.70474609 0.80933594 55.70474609 0.46313477 57.66162109 C0.25068115 58.83128418 0.03822754 60.00094727 -0.18066406 61.20605469 C-0.28314283 64.96861333 0.42948036 66.45850808 2.73266602 69.38818359 C6.177095 71.68446959 7.45866146 71.64080831 11.51416016 71.64697266 C12.70292252 71.65327698 13.89168488 71.6595813 15.11647034 71.66607666 C16.40391647 71.6620282 17.69136261 71.65797974 19.01782227 71.65380859 C20.35721405 71.65515695 21.69660536 71.6570989 23.03599548 71.65960693 C25.84793746 71.66255729 28.65975247 71.65826825 31.47167969 71.64892578 C35.05007499 71.63760814 38.62816769 71.64404185 42.20655155 71.65607071 C44.97692571 71.66335788 47.74723028 71.66096892 50.51760674 71.65581512 C52.47048516 71.65385608 54.42336643 71.65986739 56.37623596 71.66607666 C67.07698731 71.61036189 78.44937383 71.18814561 86.71313477 63.56005859 C92.16435742 57.6704902 94.19814126 52.52401146 93.98266602 44.49755859 C93.47865693 40.2449819 91.4391475 38.05647689 88.42016602 35.20068359 C79.42776032 29.13603789 67.52790386 30.22964039 57.12329102 30.22021484 C55.83831726 30.21688644 54.55334351 30.21355804 53.22943115 30.21012878 C50.52656206 30.20418108 47.82372477 30.20228469 45.12084961 30.20288086 C41.66546516 30.202983 38.21028381 30.18925859 34.75494766 30.17210865 C31.44022565 30.15830649 28.12554139 30.15890041 24.81079102 30.15771484 C23.57427795 30.15052933 22.33776489 30.14334381 21.06378174 30.13594055 C19.91198425 30.13901718 18.76018677 30.14209381 17.57348633 30.14526367 C16.56360657 30.14383865 15.55372681 30.14241364 14.51324463 30.14094543 C11.51458437 30.40757456 9.40203545 31.0034847 6.73266602 32.38818359 Z " fill="#98C31D" transform="translate(614.267333984375,84.61181640625)"/>
<path d="M0 0 C1.29905777 0.00666183 1.29905777 0.00666183 2.62435913 0.01345825 C3.60522491 0.01360931 4.5860907 0.01376038 5.59667969 0.01391602 C6.6581723 0.02423859 7.71966492 0.03456116 8.81332397 0.04519653 C9.89810028 0.04802643 10.98287659 0.05085632 12.1005249 0.05377197 C15.57521461 0.06499325 19.04964929 0.09010141 22.52426147 0.11550903 C24.87582026 0.12553631 27.22738307 0.1346626 29.57894897 0.14285278 C35.35247392 0.16493892 41.12584948 0.19843559 46.89926147 0.24050903 C51.11272601 14.99933239 54.90831774 29.85774764 58.66603303 44.73822045 C59.17404399 46.74958155 59.68258792 48.7608072 60.1912899 50.77199364 C61.97025776 57.80574269 63.74670793 64.84012271 65.52108765 71.87503052 C67.16977608 78.41127192 68.82460134 84.94593991 70.48206979 91.47995979 C71.91310228 97.12261054 73.3395857 102.76639884 74.76259154 108.41107911 C75.60923489 111.76908983 76.45775616 115.1265983 77.31101418 118.48293495 C78.25822307 122.20947957 79.19599284 125.9383633 80.13290405 129.66751099 C80.41492172 130.77139664 80.69693939 131.87528229 80.98750305 133.01261902 C81.24111603 134.02842041 81.494729 135.0442218 81.75602722 136.09080505 C81.97813779 136.96986165 82.20024836 137.84891825 82.42908955 138.75461292 C82.91522748 141.32492459 83.05526245 143.63105042 82.89926147 146.24050903 C80.82924828 148.31052223 76.41160223 147.40460598 73.55941772 147.40847778 C72.72212631 147.41180618 71.8848349 147.41513458 71.02217102 147.41856384 C69.2475642 147.4236366 67.4729478 147.42597206 65.69833374 147.42581177 C62.97673891 147.42799701 60.25555005 147.44614536 57.5340271 147.46511841 C55.81332537 147.46805245 54.0926217 147.47003717 52.37191772 147.47097778 C51.55417374 147.4781633 50.73642975 147.48534882 49.89390564 147.49275208 C44.12808351 147.46933107 44.12808351 147.46933107 41.89926147 145.24050903 C41.02415222 141.65550265 40.26671742 138.07326738 39.57504272 134.44949341 C39.41648804 133.70119263 39.25793335 132.95289185 39.09457397 132.18191528 C38.96067261 131.49814819 38.82677124 130.8143811 38.68881226 130.1098938 C37.57905396 127.48236775 36.35515215 126.69381708 33.89926147 125.24050903 C30.696967 124.79228762 30.696967 124.79228762 27.08285522 124.86819458 C26.40594635 124.86454391 25.72903748 124.86089325 25.03161621 124.85713196 C22.79974072 124.84904282 20.56859503 124.86262217 18.33676147 124.87722778 C16.78264364 124.87774659 15.22852514 124.87722809 13.67440796 124.87571716 C10.41950668 124.87580681 7.16485347 124.88622124 3.91000366 124.90432739 C-0.259724 124.92701439 -4.4290893 124.92755791 -8.59886169 124.92080975 C-11.80735487 124.91746639 -15.01576563 124.92410676 -18.22424316 124.93393898 C-19.76161264 124.93778494 -21.29899128 124.9389417 -22.83636475 124.93735313 C-24.98586459 124.93698178 -27.13490199 124.94962178 -29.28433228 124.96585083 C-30.50692749 124.97045822 -31.72952271 124.97506561 -32.98916626 124.97981262 C-35.97202918 125.2297254 -37.63314336 125.60130045 -40.10073853 127.24050903 C-41.60385065 129.20367061 -41.60385065 129.20367061 -42.82730103 131.55691528 C-43.30167603 132.40318481 -43.77605103 133.24945435 -44.26480103 134.12136841 C-44.98796509 135.44878052 -44.98796509 135.44878052 -45.72573853 136.80300903 C-46.69236401 138.55692553 -47.66349573 140.3083685 -48.63980103 142.05691528 C-49.06470825 142.83494507 -49.48961548 143.61297485 -49.92739868 144.4145813 C-51.10073853 146.24050903 -51.10073853 146.24050903 -53.10073853 147.24050903 C-55.87234479 147.32734348 -58.61848617 147.35606693 -61.38980103 147.33816528 C-62.61743668 147.33604286 -62.61743668 147.33604286 -63.86987305 147.33387756 C-66.48853177 147.32827193 -69.10710556 147.31571852 -71.72573853 147.30300903 C-73.49917479 147.29799476 -75.2726124 147.29343172 -77.04605103 147.28933716 C-81.39764634 147.27830067 -85.74917802 147.26103228 -90.10073853 147.24050903 C-90.76235962 145.53152466 -90.76235962 145.53152466 -91.10073853 143.24050903 C-90.10708618 141.02761841 -90.10708618 141.02761841 -88.51480103 138.58425903 C-87.92231567 137.65847046 -87.32983032 136.73268188 -86.71939087 135.77883911 C-85.73253296 134.27486572 -85.73253296 134.27486572 -84.72573853 132.74050903 C-83.33320133 130.56855676 -81.94265487 128.39532714 -80.55386353 126.22097778 C-80.00857498 125.37172981 -80.00857498 125.37172981 -79.45227051 124.50532532 C-75.71648659 118.67684609 -72.12685034 112.76297066 -68.55108643 106.8354187 C-66.7576085 103.8626948 -64.95866577 100.89328502 -63.15933228 97.92410278 C-62.81154221 97.35008728 -62.46375214 96.77607178 -62.10542297 96.18466187 C-57.91970601 89.28308779 -53.66251684 82.42629079 -49.40542603 75.56863403 C-45.64416586 69.50946112 -41.90194297 63.4386197 -38.16323853 57.36550903 C-37.48930054 56.27085327 -36.81536255 55.17619751 -36.1210022 54.04837036 C-32.26248078 47.77450633 -28.42381022 41.48907592 -24.60342407 35.19192505 C-19.57421787 26.90238653 -14.51249478 18.63582905 -9.35073853 10.42800903 C-8.84897095 9.62693726 -8.34720337 8.82586548 -7.83023071 8.0005188 C-7.13655396 6.9030835 -7.13655396 6.9030835 -6.42886353 5.78347778 C-5.82413208 4.82477783 -5.82413208 4.82477783 -5.20718384 3.84671021 C-2.77630036 0.31785265 -2.77630036 0.31785265 0 0 Z M14.89926147 31.24050903 C13.50719824 33.14441097 13.50719824 33.14441097 12.13363647 35.64675903 C11.57974243 36.60735229 11.02584839 37.56794556 10.45516968 38.55764771 C9.85921997 39.60799194 9.26327026 40.65833618 8.64926147 41.74050903 C7.38774892 43.93463802 6.12602379 46.12864479 4.86410522 48.32254028 C3.88739868 50.02917847 3.88739868 50.02917847 2.89096069 51.77029419 C-0.3016294 57.34249831 -3.54814187 62.88334865 -6.78823853 68.42800903 C-7.37572876 69.43605591 -7.96321899 70.44410278 -8.56851196 71.48269653 C-9.11926392 72.42757935 -9.67001587 73.37246216 -10.23745728 74.34597778 C-10.71916382 75.17250854 -11.20087036 75.99903931 -11.69717407 76.85061646 C-12.68429137 78.53141159 -13.71632981 80.18622984 -14.7796936 81.81985474 C-16.39016119 84.31122974 -16.39016119 84.31122974 -16.10073853 87.86550903 C-15.43022076 91.29865445 -15.43022076 91.29865445 -13.02261353 92.92214966 C-9.42114556 94.54714356 -6.23017515 94.7081463 -2.35073853 94.70925903 C-1.6150061 94.71687256 -0.87927368 94.72448608 -0.12124634 94.73233032 C1.42852395 94.74309718 2.9783666 94.74599833 4.52816772 94.7414856 C6.89268209 94.74051174 9.25396393 94.7821944 11.61801147 94.82644653 C13.12842141 94.83165319 14.63884257 94.83434173 16.14926147 94.83425903 C16.85147827 94.8506543 17.55369507 94.86704956 18.27719116 94.88394165 C21.86872599 94.83362357 23.89100325 94.2456916 26.94613647 92.32839966 C29.84210075 87.74988015 28.93076004 84.39373078 27.89926147 79.24050903 C27.72240814 78.33709778 27.54555481 77.43368652 27.36334229 76.50289917 C26.75071139 73.57842775 26.08122301 70.67208229 25.39535522 67.76394653 C25.15261368 66.71268585 24.90987213 65.66142517 24.65977478 64.57830811 C23.89124308 61.25599657 23.11415368 57.93575718 22.33676147 54.61550903 C21.81080152 52.34871397 21.28540538 50.08178802 20.7605896 47.81472778 C19.47999303 42.28845849 18.19238463 36.7638598 16.89926147 31.24050903 C16.23926147 31.24050903 15.57926147 31.24050903 14.89926147 31.24050903 Z " fill="#98C31D" transform="translate(807.1007385253906,84.75949096679688)"/>
<path d="M0 0 C1.36995117 0.02707031 1.36995117 0.02707031 2.76757812 0.0546875 C4.99203514 0.10127299 7.21416967 0.16664515 9.4375 0.25 C10.46885286 3.34405859 10.43273695 4.34344258 9.87440491 7.43597412 C9.7243248 8.28822571 9.57424469 9.14047729 9.4196167 10.01855469 C9.24770813 10.95054688 9.07579956 11.88253906 8.89868164 12.84277344 C8.7232634 13.82683167 8.54784515 14.81088989 8.36711121 15.82476807 C7.98460982 17.96484386 7.59865951 20.10430539 7.20970345 22.24321747 C6.59392456 25.62989866 5.98713382 29.01808067 5.38267517 32.40679932 C4.09672812 39.60603107 2.79874755 46.80306835 1.5 54 C-0.0011832 62.32556342 -1.4974448 70.65197275 -2.98428535 78.98011017 C-3.58191601 82.31513495 -4.18699305 85.6487521 -4.79246521 88.98236084 C-5.16007734 91.0347295 -5.52736832 93.08715571 -5.89428711 95.13964844 C-6.06417145 96.0635437 -6.23405579 96.98743896 -6.40908813 97.93933105 C-7.25924528 102.74075205 -8.02938101 107.36040971 -7.5625 112.25 C-5.98410299 114.38603479 -5.09415191 115.15490828 -2.45817757 115.62638092 C-1.64151052 115.62709343 -0.82484348 115.62780594 0.01657104 115.62854004 C1.42549622 115.64084404 1.42549622 115.64084404 2.86288452 115.65339661 C4.40584702 115.64417427 4.40584702 115.64417427 5.97998047 115.63476562 C7.06478699 115.6401384 8.14959351 115.64551117 9.26727295 115.65104675 C11.62609956 115.66084111 13.98496228 115.66376393 16.34380722 115.66069031 C20.07574495 115.6562248 23.80720533 115.67017745 27.53909302 115.68908691 C35.46355508 115.72593173 43.38797227 115.73974003 51.3125 115.75 C60.48694012 115.76188579 69.66120063 115.78356219 78.83554459 115.83000183 C82.51438654 115.84360102 86.1929383 115.83939538 89.87179565 115.83459473 C92.12661105 115.84393429 94.38142321 115.85410285 96.63623047 115.86523438 C98.17312027 115.85601204 98.17312027 115.85601204 99.74105835 115.84660339 C108.42968747 115.92202745 108.42968747 115.92202745 112.4375 119.25 C115.11140806 122.36955941 115.4375 123.91247802 115.4375 128.0625 C114.41873956 133.92037251 111.27031949 138.36626886 107.1875 142.5625 C98.93286151 147.62784634 90.69272679 147.67299728 81.21289062 147.60644531 C79.79448317 147.6072375 78.37607595 147.60933878 76.95767212 147.61264038 C73.13170842 147.61774313 69.3060169 147.60430614 65.48009682 147.58711338 C61.47139807 147.57201427 57.46270191 147.57325008 53.45397949 147.57244873 C46.73261905 147.56876575 40.01136133 147.5538403 33.29003906 147.53125 C24.65305558 147.50228098 16.01615429 147.49201649 7.3791275 147.4875679 C-0.04596021 147.48359543 -7.47102994 147.47110059 -14.89610481 147.45722103 C-17.28528426 147.45311807 -19.67446308 147.45019471 -22.06364441 147.44742584 C-25.80652961 147.44254661 -29.54936449 147.43236672 -33.29222488 147.41798782 C-34.66893179 147.41345243 -36.04564548 147.41062324 -37.42235947 147.40958023 C-39.29358663 147.40784377 -41.16480396 147.3993459 -43.03601074 147.39044189 C-44.0853051 147.38746723 -45.13459946 147.38449257 -46.21569061 147.38142776 C-48.5625 147.25 -48.5625 147.25 -49.5625 146.25 C-49.37665759 138.31462112 -48.05694498 130.46937035 -46.66064453 122.67333984 C-46.47024597 121.58549698 -46.27984741 120.49765411 -46.0836792 119.37684631 C-45.45968614 115.82055656 -44.82781648 112.26572262 -44.1953125 108.7109375 C-43.75522086 106.21861018 -43.31543715 103.72622846 -42.87594604 101.23379517 C-41.95651291 96.02697009 -41.03321757 90.82084435 -40.10693359 85.61523438 C-39.04066074 79.62246276 -37.98266807 73.62827235 -36.92888176 67.63329351 C-35.90861507 61.83059093 -34.88159808 56.02910083 -33.85183334 50.22807693 C-33.41709561 47.7749232 -32.98414074 45.32145279 -32.55304337 42.86765671 C-31.9488456 39.43334117 -31.33696899 36.0004773 -30.72314453 32.56787109 C-30.54848663 31.56604294 -30.37382874 30.56421478 -30.19387817 29.5320282 C-26.68458332 10.0889926 -26.68458332 10.0889926 -19.5625 4.25 C-13.15144771 0.35284697 -7.37091055 -0.28120862 0 0 Z " fill="#98C31D" transform="translate(1318.5625,84.75)"/>
<path d="M0 0 C0.84433594 0.00322266 1.68867187 0.00644531 2.55859375 0.00976562 C3.86763672 0.02233398 3.86763672 0.02233398 5.203125 0.03515625 C6.53537109 0.04192383 6.53537109 0.04192383 7.89453125 0.04882812 C10.08079829 0.06058225 12.26692679 0.07701376 14.453125 0.09765625 C16.06861834 5.19779548 14.85651519 9.81726147 13.8984375 14.93334961 C13.72141296 15.91930618 13.54438843 16.90526276 13.36199951 17.9210968 C12.97695907 20.05909545 12.58771528 22.19634041 12.19476318 24.33289909 C11.57308412 27.71492311 10.96299405 31.09885509 10.35595703 34.48353577 C8.84600522 42.88933423 7.31695057 51.29163332 5.78686523 59.69378662 C4.49434868 66.7944276 3.20986492 73.89642607 1.9364624 81.00052071 C1.33562423 84.33340139 0.72292744 87.66396358 0.10986328 90.99461365 C-0.25808957 93.04049027 -0.6254705 95.08646986 -0.9921875 97.13256836 C-1.16566711 98.05691681 -1.33914673 98.98126526 -1.5178833 99.93362427 C-2.33595735 104.57273919 -2.88193331 108.47191956 -1.546875 113.09765625 C0.90310522 115.54763647 1.54225853 115.34920877 4.9052124 115.35594177 C6.30990784 115.36618378 6.30990784 115.36618378 7.74298096 115.37663269 C8.77364685 115.37407974 9.80431274 115.37152679 10.86621094 115.36889648 C12.49079224 115.3767366 12.49079224 115.3767366 14.14819336 115.38473511 C16.50649308 115.39499773 18.86481559 115.40075943 21.2231369 115.4026165 C24.95520181 115.40626732 28.6869979 115.42295969 32.41900635 115.44337463 C41.6922153 115.49189362 50.96546089 115.52341447 60.23876953 115.54467773 C68.06507083 115.56265423 75.89116567 115.59206191 83.71735382 115.63871956 C86.19085938 115.65037546 88.6643988 115.65629996 91.13793182 115.65640068 C94.59964234 115.6565927 98.06083137 115.67485861 101.52246094 115.69702148 C102.54502991 115.69244431 103.56759888 115.68786713 104.62115479 115.68315125 C109.97848682 115.73768778 113.8370393 116.05390898 118.453125 119.09765625 C121.0977227 122.46350786 120.867121 125.95769625 120.453125 130.09765625 C118.43268996 136.59373854 114.17623401 141.49024512 108.453125 145.09765625 C101.59226958 147.77106732 94.61448343 147.3649486 87.34790039 147.32470703 C85.9183147 147.32414228 84.48872842 147.32446073 83.05914307 147.32559204 C79.19392706 147.32616406 75.32883608 147.31443429 71.46364903 147.30044413 C67.41843509 147.28791153 63.37321804 147.28676428 59.32798767 147.28439331 C51.67480272 147.27818596 44.02167515 147.26178525 36.36851543 147.24169433 C27.65268662 147.21931211 18.93685502 147.20833606 10.22100461 147.19830346 C-7.70165442 147.17741835 -25.62426009 147.1422569 -43.546875 147.09765625 C-44.47531424 143.38440028 -44.51737269 140.58012776 -43.86557007 136.81819153 C-43.60080368 135.25190506 -43.60080368 135.25190506 -43.33068848 133.65397644 C-43.12923218 132.51882095 -42.92777588 131.38366547 -42.72021484 130.21411133 C-42.51381378 129.0102478 -42.30741272 127.80638428 -42.09475708 126.56604004 C-41.52707397 123.26900126 -40.95114618 119.97362943 -40.37048674 116.67886567 C-39.88542179 113.92143847 -39.40559204 111.16311001 -38.92559016 108.40479773 C-37.79153242 101.88967287 -36.64747443 95.37635663 -35.49755859 88.86401367 C-34.3151921 82.16668974 -33.15115587 75.46636092 -31.99597013 68.76430017 C-31.00090043 62.99562653 -29.9935535 57.22918464 -28.97671282 51.46430892 C-28.37076049 48.02794035 -27.76950403 44.59092169 -27.18040085 41.15162086 C-26.5213392 37.30725798 -25.83671519 33.46768052 -25.14990234 29.62817383 C-24.96059143 28.5031395 -24.77128052 27.37810516 -24.57623291 26.21897888 C-23.14735826 18.40134505 -21.08158973 10.53699925 -15.23046875 4.84375 C-14.48925781 4.41191406 -13.74804688 3.98007812 -12.984375 3.53515625 C-12.24058594 3.08011719 -11.49679687 2.62507813 -10.73046875 2.15625 C-7.1369099 0.41411324 -3.97260502 -0.02684193 0 0 Z " fill="#98C31D" transform="translate(1201.546875,278.90234375)"/>
</svg>
